# xmcd
#
# Track frame offsets:
#	150
#	12950
#	27809
#	43741
#	53151
#	67119
#	81349
#	94581
#	108946
#	123225
#	137915
#	153155
#	167711
#	182092
#	195464
#	212916
#	226877
#	242999
#	256880
#
# Disc length: 3628 seconds
#
# Revision: 2
# Processed by: cddbd v1.5.2PL0 Copyright (c) Steve Scherf et al.
# Submitted via: audiograbber 1.83.01
#
DISCID=000e2a13
DTITLE=Ioana Radu - Muzica de Colectie vol.24
DYEAR=2007
DGENRE=Folk
TTITLE0=Ioana Radu - Cine te-a facut pe tine?
TTITLE1=Ioana Radu - Inima, de ce nu vrei sa-mbatranesti?
TTITLE2=Ioana Radu - Draga mea, fa-ti calea-ncoace!
TTITLE3=Ioana Radu - Si-am o mandra mititica
TTITLE4=Ioana Radu - Cine mi te-a scos in cale
TTITLE5=Ioana Radu - In noaptea de Mos Ajun
TTITLE6=Ioana Radu - De-ai fi om si te-ai pricepe
TTITLE7=Ioana Radu - Si cu cat ma duce gandul
TTITLE8=Ioana Radu - La putul cu cinci izvoare
TTITLE9=Ioana Radu - Maica, uratul ma cere
TTITLE10=Ioana Radu - Ce folos de-asa campie
TTITLE11=Ioana Radu - Dorule si o boala grea
TTITLE12=Ioana Radu - De cine dorul se leaga
TTITLE13=Ioana Radu - Te rog sa uiti ca te-am iubit
TTITLE14=Ioana Radu - Spune maiculita, spune
TTITLE15=Ioana Radu - Padure si iar padure
TTITLE16=Ioana Radu - E Rita, fecioara cu ochi sprintari
TTITLE17=Ioana Radu - M-a-mbatranit supararea
TTITLE18=Ioana Radu - Lasa-ma sa patimesc
EXTD=
EXTT0=
EXTT1=
EXTT2=
EXTT3=
EXTT4=
EXTT5=
EXTT6=
EXTT7=
EXTT8=
EXTT9=
EXTT10=
EXTT11=
EXTT12=
EXTT13=
EXTT14=
EXTT15=
EXTT16=
EXTT17=
EXTT18=
PLAYORDER=
